<svg width="63.088135" height="15.980011" viewBox="0 0 63.0881 15.98" fill="none" xmlns="http://www.w3.org/2000/svg" xmlns:xlink="http://www.w3.org/1999/xlink">
	<desc>
			Created with Pixso.
	</desc>
	<defs/>
	<path id="Vector" d="M21.7283 2.112L21.7283 2.68799L23.585 2.68799L23.585 3.64801L21.7283 3.64801L21.7283 9.15201L20.5758 9.15201L20.5758 3.58401L19.4874 3.58401L19.4874 2.62399L20.5758 2.62399L20.5758 2.048C20.5758 0.768005 21.3441 0 22.6886 0C23.2008 0 23.649 0.127991 23.9691 0.384003L23.649 1.28C23.3929 1.08801 23.0728 0.959991 22.7527 0.959991C22.1124 0.959991 21.7283 1.34399 21.7283 2.112Z" fill="#FFFFFF" fill-opacity="1.000000" fill-rule="nonzero"/>
	<path id="Vector" d="M29.6672 5.18399L29.6672 9.08801L28.5789 9.08801L28.5789 8.25601C28.1947 8.832 27.4905 9.15201 26.4661 9.15201C24.9935 9.15201 24.0972 8.384 24.0972 7.23199C24.0972 6.20801 24.7374 5.37601 26.6582 5.37601L28.5149 5.37601L28.5149 5.12C28.5149 4.16 27.9386 3.58398 26.7861 3.58398C26.0179 3.58398 25.2496 3.84 24.7374 4.28799L24.2252 3.392C24.9294 2.88 25.8899 2.56 26.9142 2.56C28.7069 2.56 29.6672 3.45599 29.6672 5.18399ZM28.5149 7.104L28.5149 6.20801L26.7222 6.20801C25.5697 6.20801 25.2496 6.65601 25.2496 7.23199C25.2496 7.87201 25.7618 8.25601 26.6582 8.25601C27.5544 8.25601 28.1947 7.87201 28.5149 7.104Z" fill="#FFFFFF" fill-opacity="1.000000" fill-rule="nonzero"/>
	<path id="Vector" d="M31.0118 8.384L31.524 7.48801C32.1002 7.87201 32.9326 8.12799 33.7649 8.12799C34.8533 8.12799 35.3015 7.80798 35.3015 7.23199C35.3015 5.76001 31.2039 7.04001 31.2039 4.48001C31.2039 3.328 32.2283 2.56 33.8929 2.56C34.7252 2.56 35.6857 2.75198 36.2618 3.13599L35.7496 4.03198C35.1735 3.64801 34.5332 3.51999 33.8929 3.51999C32.8685 3.51999 32.3563 3.90399 32.3563 4.41599C32.3563 5.952 36.4539 4.672 36.4539 7.168C36.4539 8.32001 35.3655 9.08801 33.7008 9.08801C32.6124 9.15201 31.588 8.832 31.0118 8.384Z" fill="#FFFFFF" fill-opacity="1.000000" fill-rule="nonzero"/>
	<path id="Vector" d="M41.5759 8.70401C41.1918 9.02402 40.6796 9.15201 40.1674 9.15201C38.8868 9.15201 38.1185 8.448 38.1185 7.168L38.1185 3.58401L37.0302 3.58401L37.0302 2.62399L38.1185 2.62399L38.1185 1.216L39.271 1.216L39.271 2.62399L41.1277 2.62399L41.1277 3.58401L39.271 3.58401L39.271 7.04001C39.271 7.74402 39.6552 8.12799 40.2954 8.12799C40.6155 8.12799 40.9357 8 41.1918 7.80801L41.5759 8.70401Z" fill="#FFFFFF" fill-opacity="1.000000" fill-rule="nonzero"/>
	<path id="Vector" d="M43.1124 0.0639954L43.6886 0.0639954L43.6886 9.08798L43.1124 9.08798L43.1124 0.0639954Z" fill="#FFFFFF" fill-opacity="1.000000" fill-rule="nonzero"/>
	<path id="Vector" d="M46.1216 0.70401C46.1216 0.448029 46.3136 0.192017 46.6338 0.192017C46.8899 0.192017 47.146 0.384003 47.146 0.70401C47.146 0.960022 46.9539 1.216 46.6338 1.216C46.3136 1.216 46.1216 0.960022 46.1216 0.70401ZM46.3136 2.75201L46.8899 2.75201L46.8899 9.08801L46.3136 9.08801L46.3136 2.75201Z" fill="#FFFFFF" fill-opacity="1.000000" fill-rule="nonzero"/>
	<path id="Vector" d="M55.149 5.37598L55.149 9.08798L54.5729 9.08798L54.5729 5.44C54.5729 4.03198 53.8046 3.26398 52.524 3.26398C51.0515 3.26398 50.0911 4.224 50.0911 5.69598L50.0911 9.08798L49.5149 9.08798L49.5149 2.75198L50.0911 2.75198L50.0911 4.09598C50.5393 3.19998 51.3716 2.68799 52.588 2.68799C54.1246 2.68799 55.149 3.58398 55.149 5.37598Z" fill="#FFFFFF" fill-opacity="1.000000" fill-rule="nonzero"/>
	<path id="Vector" d="M63.024 6.07999L57.582 6.07999C57.646 7.616 58.7345 8.57599 60.271 8.57599C61.1034 8.57599 61.8076 8.25598 62.3198 7.67999L62.704 8.064C62.1278 8.76797 61.2954 9.08798 60.3351 9.08798C58.4143 9.08798 57.0698 7.74399 57.0698 5.888C57.0698 4.03198 58.3503 2.68799 60.079 2.68799C61.8076 2.68799 63.0881 3.96799 63.0881 5.888C63.024 5.952 63.024 6.01599 63.024 6.07999ZM57.582 5.56799L62.4479 5.56799C62.3198 4.224 61.3595 3.19998 60.0149 3.19998C58.6704 3.19998 57.646 4.224 57.582 5.56799Z" fill="#FFFFFF" fill-opacity="1.000000" fill-rule="nonzero"/>
	<path id="Vector" d="M19.4874 15.36L19.6794 15.04C19.9355 15.232 20.3197 15.36 20.7039 15.36C21.2802 15.36 21.4722 15.168 21.4722 14.912C21.4722 14.144 19.6155 14.784 19.6155 13.632C19.6155 13.184 19.9996 12.8 20.7679 12.8C21.1521 12.8 21.5363 12.928 21.7924 13.056L21.6002 13.376C21.3441 13.184 21.024 13.12 20.7679 13.12C20.2557 13.12 19.9996 13.312 19.9996 13.568C19.9996 14.336 21.8563 13.76 21.8563 14.848C21.8563 15.36 21.4082 15.68 20.6399 15.68C20.1277 15.744 19.6794 15.552 19.4874 15.36Z" fill="#FFFFFF" fill-opacity="1.000000" fill-rule="nonzero"/>
	<path id="Vector" d="M25.1857 15.488C25.0576 15.616 24.8015 15.68 24.5454 15.68C23.9692 15.68 23.7131 15.36 23.7131 14.848L23.7131 13.12L23.2009 13.12L23.2009 12.8L23.7131 12.8L23.7131 12.16L24.0973 12.16L24.0973 12.8L24.9937 12.8L24.9937 13.12L24.0973 13.12L24.0973 14.848C24.0973 15.168 24.2893 15.36 24.6095 15.36C24.7375 15.36 24.9296 15.296 25.0576 15.232L25.1857 15.488Z" fill="#FFFFFF" fill-opacity="1.000000" fill-rule="nonzero"/>
	<path id="Vector" d="M29.6033 12.8L29.6033 15.68L29.2191 15.68L29.2191 15.168C29.0271 15.552 28.6429 15.744 28.1947 15.744C27.4264 15.744 26.9783 15.36 26.9783 14.528L26.9783 12.8L27.3624 12.8L27.3624 14.464C27.3624 15.104 27.6825 15.424 28.2588 15.424C28.835 15.424 29.2191 15.04 29.2191 14.4L29.2191 12.8L29.6033 12.8Z" fill="#FFFFFF" fill-opacity="1.000000" fill-rule="nonzero"/>
	<path id="Vector" d="M34.4691 11.584L34.4691 15.68L34.0851 15.68L34.0851 15.104C33.829 15.488 33.4448 15.68 32.9966 15.68C32.1643 15.68 31.524 15.104 31.524 14.208C31.524 13.312 32.1643 12.736 32.9966 12.736C33.4448 12.736 33.829 12.928 34.0851 13.312L34.0851 11.584L34.4691 11.584ZM34.0851 14.272C34.0851 13.568 33.6368 13.12 32.9966 13.12C32.3563 13.12 31.9082 13.568 31.9082 14.272C31.9082 14.976 32.3563 15.424 32.9966 15.424C33.5729 15.36 34.0851 14.912 34.0851 14.272Z" fill="#FFFFFF" fill-opacity="1.000000" fill-rule="nonzero"/>
	<path id="Vector" d="M36.5819 11.904C36.5819 11.776 36.71 11.648 36.838 11.648C36.9661 11.648 37.0941 11.776 37.0941 11.904C37.0941 12.032 36.9661 12.16 36.838 12.16C36.71 12.16 36.5819 12.032 36.5819 11.904ZM36.6459 12.8L37.03 12.8L37.03 15.68L36.6459 15.68L36.6459 12.8Z" fill="#FFFFFF" fill-opacity="1.000000" fill-rule="nonzero"/>
	<path id="Vector" d="M38.9509 14.272C38.9509 13.44 39.5912 12.8 40.4235 12.8C41.2559 12.8 41.896 13.44 41.896 14.272C41.896 15.104 41.2559 15.744 40.4235 15.744C39.5912 15.744 38.9509 15.104 38.9509 14.272ZM41.512 14.272C41.512 13.568 41.0637 13.12 40.4235 13.12C39.7832 13.12 39.3351 13.568 39.3351 14.272C39.3351 14.976 39.7832 15.424 40.4235 15.424C41.0637 15.36 41.512 14.912 41.512 14.272Z" fill="#FFFFFF" fill-opacity="1.000000" fill-rule="nonzero"/>
	<path id="Vector" d="M14.9418 7.104C14.6216 7.42401 14.3015 7.67999 13.8534 7.80801C13.5332 7.936 13.2131 7.87201 12.8929 7.87201C11.4204 7.936 9.88379 8 8.41125 8.12799C8.21924 8.12799 8.09119 8.19202 7.96313 8.32001C7.83508 8.51199 7.64294 8.70401 7.45093 8.832C7.38684 8.896 7.38684 8.95999 7.38684 9.02402C7.32288 9.98401 7.25879 11.008 7.19482 11.968C7.13074 12.8 7.06677 13.632 7.00269 14.4C6.93872 14.976 6.68262 15.424 6.17041 15.808C7.70703 16.256 10.524 15.872 12.4448 14.144C14.6216 12.224 15.3899 9.85602 14.9418 7.104Z" fill="#FFFFFF" fill-opacity="1.000000" fill-rule="nonzero"/>
	<path id="Vector" d="M0.216187 9.28C1.56067 8.95999 2.96924 8.63998 4.37781 8.384L4.44177 8.31998C5.27405 8.12799 6.10645 8 6.87476 7.80798C7.00281 7.80798 7.13086 7.74399 7.19482 7.552C7.38684 6.39999 7.64294 5.24799 7.83508 4.16C7.96313 3.51999 8.0271 2.944 8.21924 2.30399C8.2832 1.91998 8.34729 1.53598 8.41125 1.216C8.47534 1.02399 8.41125 0.959991 8.21924 0.959991C5.01794 0.832001 2.58508 2.048 0.984497 4.79999C0.1521 6.14398 -0.104004 7.67999 0.0881348 9.28C0.1521 9.28 0.1521 9.28 0.216187 9.28Z" fill="#FFFFFF" fill-opacity="1.000000" fill-rule="nonzero"/>
	<path id="Vector" d="M0.792358 11.904C1.30444 12.736 1.88074 13.504 2.58496 14.144C2.96912 14.464 3.35327 14.784 3.86548 15.04C3.73743 14.528 3.60938 14.08 3.86548 13.632C3.92944 13.184 4.24963 12.864 4.5697 12.608C4.76184 12.48 4.95386 12.288 5.146 12.16C5.59412 11.712 5.97827 11.2 6.29834 10.688C6.49048 10.24 6.61853 9.79199 6.6825 9.28C6.74658 9.02399 6.6825 9.02399 6.42639 9.02399C4.88989 9.15198 3.28931 9.28 1.75269 9.47198C1.24048 9.53598 0.728271 9.59998 0.216064 9.59998C0.0240479 9.59998 -0.0400391 9.664 0.0240479 9.85599C0.0880127 10.112 0.1521 10.368 0.216064 10.624C0.472168 11.008 0.664307 11.456 0.792358 11.904Z" fill="#FFFFFF" fill-opacity="1.000000" fill-rule="nonzero"/>
	<path id="Vector" d="M14.1094 4.73599C13.6613 4.03201 13.2131 3.392 12.5729 2.88C11.5485 1.92001 10.332 1.34399 8.98743 1.02399C8.73132 0.959991 8.66736 1.02399 8.66736 1.28C8.60327 2.048 8.53931 2.81601 8.47522 3.64801C8.41125 4.86401 8.2832 6.07999 8.15515 7.29599C8.15515 7.552 8.15515 7.552 8.41125 7.552C9.81982 7.29599 10.9082 6.52798 11.6765 5.37601C12.1246 4.73599 12.957 4.41599 13.7252 4.608C13.8533 4.672 13.9813 4.672 14.1094 4.73599Z" fill="#FFFFFF" fill-opacity="1.000000" fill-rule="nonzero"/>
	<path id="Vector" d="M4.3136 14.208C4.3136 14.4 4.3136 14.656 4.44165 14.848C4.63379 15.232 4.95386 15.552 5.4021 15.552C5.85022 15.552 6.17041 15.296 6.36243 14.848C6.55457 14.464 6.55457 14.016 6.36243 13.568C6.17041 13.056 5.6582 12.8 5.20996 12.864C4.76184 12.928 4.3136 13.376 4.24963 13.824C4.3136 14.016 4.3136 14.08 4.3136 14.208Z" fill="#FFFFFF" fill-opacity="1.000000" fill-rule="nonzero"/>
	<path id="Vector" d="M13.2771 7.35999C14.1094 7.35999 14.7496 6.72 14.6216 6.07999C14.5575 5.63199 14.2374 5.37601 13.8533 5.24799C13.2771 5.056 12.7649 5.12 12.3167 5.504C11.8044 6.01599 11.8685 6.784 12.5088 7.168C12.7649 7.29599 13.021 7.35999 13.2771 7.35999Z" fill="#FFFFFF" fill-opacity="1.000000" fill-rule="nonzero"/>
	<path id="Vector" d="M7.25879 8.57602C7.45081 8.57602 7.57886 8.448 7.57886 8.32001C7.57886 8.12802 7.45081 8 7.32275 8.06403C7.13074 8.06403 7.00269 8.19202 7.00269 8.32001C7.00269 8.448 7.06665 8.64001 7.25879 8.57602Z" fill="#FFFFFF" fill-opacity="1.000000" fill-rule="nonzero"/>
</svg>
