<svg width="70" height="19" viewBox="0 0 70 19" fill="none" xmlns="http://www.w3.org/2000/svg">
<path d="M17.9362 7.68085C17.5484 8.0851 17.1606 8.38829 16.6759 8.59042C16.288 8.69149 15.9002 8.69149 15.5124 8.69149C13.6703 8.79255 11.9252 8.89361 10.0831 8.99468C9.88915 8.99468 9.69525 9.09574 9.5983 9.29787C9.40439 9.5 9.21048 9.70212 9.01658 9.90425C8.91963 10.0053 8.91963 10.1064 8.91963 10.1064C8.82267 11.3191 8.72572 12.5319 8.62877 13.8457C8.53181 14.8564 8.53181 15.867 8.43486 16.8777C8.33791 17.5851 8.04705 18.1915 7.46533 18.5957C9.30744 19.2021 12.7008 18.6968 15.0277 16.4734C17.5484 14.1489 18.518 11.2181 17.9362 7.68085Z" fill="#676867"/>
<path opacity="0.4" d="M0.193943 10.5106C1.84214 10.1064 3.58729 9.70213 5.23549 9.39894H5.33245C6.30198 9.19681 7.27151 8.99468 8.24104 8.79255C8.43494 8.79255 8.53189 8.69149 8.62885 8.48936C8.82275 6.9734 9.11361 5.45745 9.40447 4.04255C9.50142 3.23404 9.59838 2.52659 9.79228 1.71808C9.88924 1.21276 9.88923 0.808509 9.98619 0.30319C10.0831 -1.71736e-06 9.98619 -1.73226e-06 9.69533 -1.73226e-06C6.01112 -0.202129 3.10253 1.41489 1.16347 4.85106C0.193943 6.56915 -0.0969159 8.48936 0.09699 10.4096C0.09699 10.5106 0.193943 10.5106 0.193943 10.5106Z" fill="#676867"/>
<path opacity="0.8" d="M0.969529 13.7447C1.55125 14.7553 2.22992 15.766 3.10249 16.5745C3.58726 16.9787 4.07202 17.383 4.65374 17.6862C4.55679 17.0798 4.36288 16.4734 4.65374 15.867C4.75069 15.2606 5.1385 14.8564 5.52632 14.5532C5.81717 14.3511 6.01108 14.1489 6.20499 13.9468C6.7867 13.4415 7.17452 12.734 7.56233 12.1277C7.75623 11.5213 7.95014 11.016 8.04709 10.4096C8.14405 10.1064 8.04709 10.0053 7.75623 10.1064C5.91413 10.3085 3.97507 10.4096 2.13296 10.6117C1.55125 10.7128 0.969529 10.7128 0.290859 10.8138C0.0969529 10.8138 0 10.9149 0 11.117C0.0969529 11.4202 0.0969529 11.7234 0.193906 12.0266C0.484765 12.633 0.775623 13.1383 0.969529 13.7447Z" fill="#676867"/>
<path opacity="0.7" d="M16.9668 4.75C16.482 3.84043 15.9003 3.03192 15.1246 2.42553C13.8643 1.21277 12.41 0.505321 10.7618 0.202129C10.4709 0.101065 10.374 0.202129 10.374 0.505321C10.277 1.51596 10.18 2.42553 10.18 3.43617C10.0831 4.95213 9.88919 6.46809 9.79224 7.98405C9.79224 8.28724 9.79224 8.28724 10.0831 8.28724C11.7313 7.98404 13.0886 6.97341 14.0582 5.55851C14.6399 4.75 15.6094 4.34575 16.482 4.54787C16.5789 4.64894 16.7728 4.64894 16.9668 4.75Z" fill="#676867"/>
<path opacity="0.7" d="M5.13855 16.6755C5.13855 16.9787 5.13855 17.1808 5.33246 17.484C5.62331 17.9894 5.91417 18.3936 6.49589 18.3936C7.07761 18.3936 7.46542 18.0904 7.65933 17.5851C7.85323 17.0798 7.95018 16.5745 7.65933 15.9681C7.36847 15.3617 6.8837 14.9574 6.30198 15.0585C5.72027 15.1596 5.2355 15.6649 5.13855 16.2713C5.13855 16.3723 5.13855 16.4734 5.13855 16.6755Z" fill="#676867"/>
<path opacity="0.4" d="M15.9003 8.08511C16.8698 8.08511 17.6454 7.2766 17.5485 6.46808C17.4515 5.96277 17.1607 5.55851 16.6759 5.35638C15.9972 5.15425 15.4155 5.15425 14.8338 5.65957C14.1551 6.26596 14.349 7.27659 15.0277 7.78191C15.3186 7.98404 15.6094 8.08511 15.9003 8.08511Z" fill="#676867"/>
<path d="M8.7257 9.60106C9.01656 9.60106 9.11351 9.5 9.11351 9.29787C9.11351 9.09574 9.01656 8.89362 8.7257 8.89362C8.5318 8.89362 8.33789 8.99468 8.33789 9.29787C8.43484 9.39893 8.43484 9.60106 8.7257 9.60106Z" fill="#676867"/>
<path d="M22.4931 2.62765V3.3351H24.6261V4.4468H22.4931V11.016H21.1358V4.4468H19.8754V3.3351H21.1358V2.62765C21.1358 1.1117 22.0083 0.101059 23.5596 0.101059C24.1413 0.101059 24.723 0.202123 25.1108 0.505314L24.723 1.61702C24.4322 1.41489 24.0443 1.21276 23.6565 1.21276C22.9779 1.31383 22.4931 1.71808 22.4931 2.62765Z" fill="#676867"/>
<path d="M31.7036 6.36702V11.016H30.4432V10.0053C29.9584 10.7128 29.1828 11.117 28.0194 11.117C26.3712 11.117 25.3047 10.2074 25.3047 8.89361C25.3047 7.68085 26.0803 6.67021 28.3102 6.67021H30.4432V6.26595C30.4432 5.05319 29.7645 4.44681 28.5041 4.44681C27.6316 4.44681 26.759 4.75 26.1773 5.25532L25.5955 4.24468C26.3712 3.63829 27.4377 3.23404 28.698 3.23404C30.5401 3.23404 31.7036 4.24468 31.7036 6.36702ZM30.3462 8.69149V7.57978H28.3102C26.9529 7.57978 26.5651 8.0851 26.5651 8.79255C26.5651 9.60106 27.1468 10.0053 28.2133 10.0053C29.1828 10.0053 29.9584 9.5 30.3462 8.69149Z" fill="#676867"/>
<path d="M33.2549 10.2074L33.7396 9.09574C34.3214 9.60106 35.3878 9.90425 36.3574 9.90425C37.6178 9.90425 38.1025 9.5 38.1025 8.89361C38.1025 7.17553 33.4488 8.69149 33.4488 5.55851C33.4488 4.14361 34.6122 3.23404 36.5513 3.23404C37.5208 3.23404 38.5873 3.53723 39.266 3.94149L38.6842 5.05319C38.0056 4.64893 37.23 4.44681 36.5513 4.44681C35.3878 4.44681 34.8061 4.85106 34.8061 5.55851C34.8061 7.37766 39.4599 5.8617 39.4599 8.89361C39.4599 10.3085 38.1995 11.2181 36.2604 11.2181C35.097 11.117 33.8366 10.7128 33.2549 10.2074Z" fill="#676867"/>
<path d="M45.2771 10.5106C44.8893 10.9149 44.2106 11.016 43.6289 11.016C42.1746 11.016 41.302 10.2074 41.302 8.59042V4.44681H40.0416V3.3351H41.302V1.61702H42.6594V3.3351H44.7923V4.44681H42.6594V8.59042C42.6594 9.39893 43.0472 9.90425 43.8228 9.90425C44.2106 9.90425 44.5984 9.80319 44.8893 9.5L45.2771 10.5106Z" fill="#676867"/>
<path d="M47.1191 0.202118H47.7978V11.0159H47.1191V0.202118Z" fill="#676867"/>
<path d="M50.5125 1.01063C50.5125 0.707443 50.8033 0.404251 51.0942 0.404251C51.385 0.404251 51.6759 0.707443 51.6759 1.01063C51.6759 1.31383 51.385 1.61702 51.0942 1.61702C50.8033 1.61702 50.5125 1.31383 50.5125 1.01063ZM50.8033 3.43617H51.482V11.016H50.8033V3.43617Z" fill="#676867"/>
<path d="M60.8864 6.56914V11.0159H60.2078V6.6702C60.2078 4.95212 59.3352 4.04255 57.8809 4.04255C56.1357 4.04255 55.1662 5.15425 55.1662 6.9734V11.0159H54.4875V3.43616H55.1662V5.05318C55.651 3.94148 56.7175 3.3351 58.0748 3.3351C59.723 3.3351 60.8864 4.4468 60.8864 6.56914Z" fill="#676867"/>
<path d="M70 7.37765H63.6981C63.795 9.1968 65.0554 10.4096 66.8006 10.4096C67.6732 10.4096 68.5457 10.1064 69.1274 9.29786L69.5153 9.80318C68.8366 10.6117 67.8671 11.0159 66.8006 11.0159C64.5707 11.0159 63.0194 9.39893 63.0194 7.17552C63.0194 4.95212 64.4737 3.3351 66.5097 3.3351C68.5457 3.3351 70 4.95212 70 7.17552C70 7.27659 70 7.27659 70 7.37765ZM63.6981 6.77127H69.3213C69.2244 5.15425 68.061 4.04255 66.5097 4.04255C64.9585 4.04255 63.795 5.15425 63.6981 6.77127Z" fill="#676867"/>
<path d="M19.8754 18.4947L20.0693 18.0904C20.3601 18.2925 20.7479 18.4947 21.2327 18.4947C21.9114 18.4947 22.1053 18.2925 22.1053 17.8883C22.1053 16.9787 19.9723 17.6862 19.9723 16.3723C19.9723 15.766 20.4571 15.3617 21.3297 15.3617C21.7175 15.3617 22.2022 15.4628 22.4931 15.6649L22.2992 16.1702C22.0083 15.9681 21.6205 15.867 21.3297 15.867C20.7479 15.867 20.4571 16.0691 20.4571 16.4734C20.4571 17.383 22.59 16.6755 22.59 17.9894C22.59 18.5957 22.1053 19 21.2327 19C20.7479 19 20.1662 18.7979 19.8754 18.4947Z" fill="#676867"/>
<path d="M26.4682 18.6968C26.2743 18.8989 25.9834 18.8989 25.7895 18.8989C25.2078 18.8989 24.82 18.4947 24.82 17.8883V15.766H24.2383V15.3617H24.82V14.5532H25.3048V15.3617H26.2743V15.766H25.3048V17.8883C25.3048 18.2926 25.4987 18.4947 25.8865 18.4947C26.0804 18.4947 26.2743 18.3936 26.3712 18.2926L26.4682 18.6968Z" fill="#676867"/>
<path d="M31.6066 15.4628V18.8989H31.2188V18.2926C31.0249 18.6968 30.5401 19 30.0554 19C29.1828 19 28.6011 18.4947 28.6011 17.484V15.4628H29.0858V17.383C29.0858 18.0904 29.4737 18.4947 30.0554 18.4947C30.734 18.4947 31.2188 17.9894 31.2188 17.2819V15.4628H31.6066Z" fill="#676867"/>
<path d="M37.1329 14.0479V18.8989H36.7451V18.1915C36.4543 18.6968 35.9695 18.8989 35.4847 18.8989C34.5152 18.8989 33.8365 18.1915 33.8365 17.0798C33.8365 16.0691 34.5152 15.3617 35.4847 15.3617C35.9695 15.3617 36.4543 15.5638 36.7451 16.0691V13.9468H37.1329V14.0479ZM36.7451 17.1809C36.7451 16.3723 36.2604 15.867 35.4847 15.867C34.8061 15.867 34.2244 16.3723 34.2244 17.1809C34.2244 17.9894 34.7091 18.4947 35.4847 18.4947C36.1634 18.5957 36.7451 17.9894 36.7451 17.1809Z" fill="#676867"/>
<path d="M39.5568 14.3511C39.5568 14.1489 39.7507 14.0479 39.8476 14.0479C40.0415 14.0479 40.1385 14.1489 40.1385 14.3511C40.1385 14.5532 40.0415 14.6543 39.8476 14.6543C39.7507 14.6543 39.5568 14.5532 39.5568 14.3511ZM39.6537 15.4628H40.1385V18.8989H39.6537V15.4628Z" fill="#676867"/>
<path d="M42.2715 17.1809C42.2715 16.1702 42.9502 15.4628 44.0166 15.4628C44.9862 15.4628 45.6648 16.1702 45.6648 17.1809C45.6648 18.1915 44.9862 19 44.0166 19C43.0471 19 42.2715 18.1915 42.2715 17.1809ZM45.277 17.1809C45.277 16.3723 44.7923 15.867 44.0166 15.867C43.338 15.867 42.7562 16.3723 42.7562 17.1809C42.7562 17.9894 43.241 18.4947 44.0166 18.4947C44.6953 18.5957 45.277 17.9894 45.277 17.1809Z" fill="#676867"/>
</svg>
