<svg width="30" height="23" viewBox="0 0 30 23" fill="none" xmlns="http://www.w3.org/2000/svg">
<path d="M13.526 0.931998L8.99 16.106L7.208 9.302C9.332 9.302 11.042 9.896 12.338 11.084C13.67 12.272 14.336 13.928 14.336 16.052C14.336 18.14 13.652 19.814 12.284 21.074C10.952 22.334 9.26 22.964 7.208 22.964C5.156 22.964 3.446 22.334 2.078 21.074C0.746 19.814 0.0800001 18.14 0.0800001 16.052C0.0800001 15.476 0.116 14.9 0.188 14.324C0.296 13.748 0.494 13.046 0.782 12.218C1.106 11.39 1.574 10.31 2.186 8.978L5.966 0.931998H13.526ZM29.186 0.931998L24.65 16.106L22.868 9.302C24.992 9.302 26.702 9.896 27.998 11.084C29.33 12.272 29.996 13.928 29.996 16.052C29.996 18.14 29.312 19.814 27.944 21.074C26.612 22.334 24.92 22.964 22.868 22.964C20.816 22.964 19.106 22.334 17.738 21.074C16.406 19.814 15.74 18.14 15.74 16.052C15.74 15.476 15.776 14.9 15.848 14.324C15.956 13.748 16.154 13.046 16.442 12.218C16.766 11.39 17.234 10.31 17.846 8.978L21.626 0.931998H29.186Z" fill="#E3AD18"/>
</svg>
