<svg width="30" height="23" viewBox="0 0 30 23" fill="none" xmlns="http://www.w3.org/2000/svg">
<path d="M0.89 22.424L5.426 7.25L7.208 14.054C5.12 14.054 3.41 13.46 2.078 12.272C0.746 11.048 0.0800001 9.392 0.0800001 7.304C0.0800001 5.18 0.746 3.506 2.078 2.282C3.446 1.022 5.156 0.391998 7.208 0.391998C9.26 0.391998 10.952 1.022 12.284 2.282C13.652 3.506 14.336 5.18 14.336 7.304C14.336 7.88 14.282 8.456 14.174 9.032C14.102 9.608 13.922 10.31 13.634 11.138C13.346 11.93 12.878 13.01 12.23 14.378L8.45 22.424H0.89ZM16.55 22.424L21.086 7.25L22.868 14.054C20.78 14.054 19.07 13.46 17.738 12.272C16.406 11.048 15.74 9.392 15.74 7.304C15.74 5.18 16.406 3.506 17.738 2.282C19.106 1.022 20.816 0.391998 22.868 0.391998C24.92 0.391998 26.612 1.022 27.944 2.282C29.312 3.506 29.996 5.18 29.996 7.304C29.996 7.88 29.942 8.456 29.834 9.032C29.762 9.608 29.582 10.31 29.294 11.138C29.006 11.93 28.538 13.01 27.89 14.378L24.11 22.424H16.55Z" fill="#E3AD18"/>
</svg>
